<?xml version="1.0" standalone="no"?>
<!DOCTYPE svg PUBLIC "-//W3C//DTD SVG 20010904//EN"
 "http://www.w3.org/TR/2001/REC-SVG-20010904/DTD/svg10.dtd">
<svg version="1.0" xmlns="http://www.w3.org/2000/svg"
 width="35.000000pt" height="35.000000pt" viewBox="0 0 35.000000 35.000000"
 preserveAspectRatio="xMidYMid meet">

<g transform="translate(0.000000,735.000000) scale(0.100000,-0.100000)"
fill="#ffffff" stroke="none">
<path d="M0 3675 l0 -3675 3675 0 3675 0 0 3675 0 3675 -3675 0 -3675 0 0
-3675z m2717 1474 c22 -7 181 -182 569 -627 296 -339 551 -629 567 -644 42
-40 104 -39 149 1 l33 29 5 595 c5 644 2 612 61 643 23 11 97 14 406 14 341 0
381 -2 411 -18 19 -10 285 -307 643 -717 335 -385 624 -712 640 -727 l29 -28
235 0 c184 0 243 -3 271 -15 66 -27 64 -7 64 -770 0 -763 2 -743 -64 -770 -51
-21 -1279 -22 -1330 -1 -23 10 -200 204 -615 679 -627 717 -613 703 -683 674
-18 -8 -42 -24 -53 -37 -19 -21 -20 -40 -25 -646 l-5 -624 -28 -27 -27 -28
-353 -3 c-229 -2 -365 1 -388 7 -31 10 -122 109 -617 674 -320 365 -593 669
-607 675 -35 16 -60 15 -95 -3 -61 -32 -60 -15 -60 -678 0 -594 0 -605 -21
-630 -11 -15 -37 -31 -57 -37 -25 -8 -217 -10 -595 -8 l-559 3 -29 33 -29 32
0 716 0 716 29 29 c16 16 38 29 48 29 10 0 269 1 575 3 548 2 557 2 585 23 54
40 53 19 53 734 0 736 -3 696 64 726 39 17 755 20 803 3z"/>
</g>
</svg>
